<?xml version="1.0"?><svg width="48" height="48" xmlns="http://www.w3.org/2000/svg" xmlns:xlink="http://www.w3.org/1999/xlink">
 <title>pris cherries</title>
 <defs>
  <linearGradient id="G1">
   <stop stop-color="#59a40f" offset="0" id="s1"/>
   <stop stop-color="#306102" offset="1" id="s2"/>
  </linearGradient>
  <linearGradient id="G2">
   <stop stop-color="#fff" offset="0" id="s3"/>
   <stop stop-color="#fff" stop-opacity="0" offset="1" id="s4"/>
  </linearGradient>
  <linearGradient id="G3">
   <stop stop-color="#000" offset="0" id="s5"/>
   <stop stop-color="#000" stop-opacity="0" offset="1" id="s6"/>
  </linearGradient>
  <linearGradient id="G4">
   <stop stop-color="#d50f0f" offset="0" id="s7"/>
   <stop stop-color="#860000" offset="1" id="s8"/>
  </linearGradient>
  <linearGradient id="G5">
   <stop stop-color="#000" offset="0" id="s9"/>
   <stop stop-color="#000" stop-opacity="0" offset="1" id="s10"/>
  </linearGradient>
  <radialGradient gradientTransform="matrix(1.09718, -0.0604007, 0.0599568, 1.07242, -7.05311, 2.20639)" gradientUnits="userSpaceOnUse" xlink:href="#G4" id="R1" fy="32.026119" fx="33.921108" r="12.011442" cy="32.026119" cx="33.921108"/>
  <radialGradient gradientTransform="matrix(0.789307, 0.493081, -0.259706, 0.415728, 10.9949, 7.83467)" gradientUnits="userSpaceOnUse" xlink:href="#G2" id="R2" fy="25.064268" fx="22.505642" r="12.011442" cy="30.310101" cx="25.346392"/>
  <linearGradient xlink:href="#G4" id="G6" y2="-0.015623" x2="0.19412" y1="1.000109" x1="1.048332"/>
  <radialGradient gradientTransform="matrix(0.365051, -0.560936, 1.44215, 0.938538, 8.91736, 25.5816)" gradientUnits="userSpaceOnUse" xlink:href="#G1" id="R3" fy="11.680827" fx="41.771999" r="4.917909" cy="11.364712" cx="41.247238"/>
  <radialGradient gradientTransform="matrix(1.1014, 0.0477, -0.0308437, 0.701965, 13.0852, -4.4055)" gradientUnits="userSpaceOnUse" xlink:href="#G5" id="R4" fy="60.043758" fx="13.292242" r="12.289036" cy="63.965389" cx="15.115514"/>
  <radialGradient gradientTransform="matrix(1.08085, 0.0468096, -0.0308437, 0.701965, -1.57653, -11.9868)" gradientUnits="userSpaceOnUse" xlink:href="#G5" id="R5" fy="63.965389" fx="15.115514" r="12.289036" cy="63.965389" cx="15.115514"/>
  <radialGradient gradientTransform="matrix(4.74004, 0.0255651, -0.0215098, 4.71476, -26.2358, -88.8)" gradientUnits="userSpaceOnUse" xlink:href="#G3" id="R6" fy="33.479305" fx="23.261456" r="11.05701" cy="33.479305" cx="23.261456"/>
  <linearGradient xlink:href="#G4" id="G7" y2="-0.02627" x2="0.208151" y1="1.026351" x1="1.025418"/>
  <radialGradient gradientTransform="matrix(0.605665, 0.551086, -0.313263, 0.349536, 11.5821, 8.45249)" gradientUnits="userSpaceOnUse" xlink:href="#G2" id="R7" fy="19.022348" fx="9.623257" r="11.05701" cy="24.748089" cx="9.795707"/>
  <radialGradient gradientTransform="matrix(1.02496, 0.00838735, -0.00872224, 0.989804, -0.72454, -1.07064)" gradientUnits="userSpaceOnUse" xlink:href="#G4" id="R8" fy="27.468206" fx="16.357241" r="11.05701" cy="27.468206" cx="16.357241"/>
  <radialGradient gradientTransform="matrix(-0.79883, 0.0766779, -0.032006, -0.333438, 51.8899, 3.91613)" gradientUnits="userSpaceOnUse" xlink:href="#G1" id="R9" fy="-3.597383" fx="29.495701" r="9.750001" cy="-3.597383" cx="29.495701"/>
  <symbol id="svg_11" xmlns:xlink="http://www.w3.org/1999/xlink" width="310.177" viewBox="0 0 310.177 325.141" height="325.141">
   <switch>
    <g>
     <g id="svg_10">
      <polygon stroke="#000000" points="193.241,324.07 113.768,244.066 2.808,264.179        54.337,163.873 0.92,64.559 112.241,82.57 190.187,1.078 207.458,112.516 309.047,161.464 208.401,212.326 " fill="#FEDE58"/>
      <polygon stroke="#000000" points="180.352,290.589 118.526,228.35 32.206,243.998        72.293,165.964 30.737,88.703 117.338,102.715 177.977,39.318 191.413,126.011 270.444,164.091 192.146,203.658 " fill="#FFFF3E"/>
     </g>
    </g>
   </switch>
  </symbol>
 </defs>
 <g>
  <title>Layer 1</title>
  <path fill="url(#R5)" id="s1" d="m26.07062,34.197495c-0.207909,4.765003 -6.324879,8.370693 -13.661659,8.05294c-7.336781,-0.317738 -13.11426,-4.43856 -12.90343,-9.20343c0.2079,-4.764999 6.32488,-8.370689 13.66166,-8.052948c7.33678,0.317749 13.114261,4.438559 12.90343,9.203438l0,0z"/>
  <path fill="url(#R4)" id="s2" d="m41.29578,41.803158c-0.20789,4.764999 -6.437981,8.365788 -13.91432,8.042c-7.476341,-0.323792 -13.36694,-4.449501 -13.15608,-9.214382c0.20787,-4.764999 6.437967,-8.365776 13.914309,-8.042c7.476343,0.323788 13.366941,4.449501 13.156092,9.214382l0,0z"/>
  <g id="cherry1">
   <path fill="url(#R8)" stroke="#520000" id="p1" d="m21.835859,32.677086c-3.509262,4.432041 -10.08575,7.113201 -14.631339,3.714001c-5.26954,-2.20364 -6.05439,-9.086931 -3.77202,-14.21933c2.56352,-5.76462 8.134911,-6.618001 14.269361,-3.11623c6.13446,3.50178 8.075539,8.643559 4.133999,13.621559z"/>
   <path opacity="0.66" fill="url(#R7)" stroke="#520000" id="p2" d="m21.835859,32.677086c-3.509262,4.432041 -10.08575,7.113201 -14.631339,3.714001c-5.26954,-2.20364 -6.05439,-9.086931 -3.77202,-14.21933c2.56352,-5.76462 8.134911,-6.618001 14.269361,-3.11623c6.13446,3.50178 8.075539,8.643559 4.133999,13.621559z"/>
   <path fill="none" stroke="url(#G7)" id="p3" d="m10.67763,17.959276c-4.295421,0.12808 -6.40333,3.73811 -7.13261,6.98159c-1.05763,4.703819 0.46413,9.228628 4.22699,10.623419c3.36425,2.685909 8.691131,1.05748 11.90311,-2.017891c3.105949,-2.973848 4.22522,-6.053198 2.265469,-9.344719c-1.655437,-2.908079 -6.896189,-6.261539 -11.262958,-6.242399z"/>
   <path fill="none" stroke="#520000" id="p4" d="m13.80985,18.618317c-0.41035,2.18334 2.730361,4.45575 5.521188,3.06061"/>
   <path fill="url(#R6)" id="s3" d="m22.554579,32.515305c-4.223221,5.640282 -11.131709,7.647232 -15.677299,4.248032c-5.26954,-2.20364 -5.72715,-9.459181 -3.44478,-14.591579c2.56352,-5.76462 8.37261,-7.016471 14.530229,-3.555592c6.46397,3.625351 8.162689,9.154551 4.59185,13.899139z"/>
   <text xml:space="preserve" text-anchor="middle" font-family="Comic Sans MS" font-size="5.001" id="svg_19" y="25.09091" x="8.727275" stroke-width="0" fill="#000000"/>
  </g>
  <g id="cherry2" transform="matrix(0.92007, 0.0398467, -0.0407428, 0.927256, 3.80083, -2.29281)">
   <path fill="url(#R1)" stroke="#520000" id="p5" d="m39.483303,39.801651c-2.279716,6.288872 -8.636366,11.670921 -14.976418,9.411232c-6.706129,-0.642128 -10.134108,-8.200546 -9.485157,-14.85215c0.728889,-7.470959 6.639517,-10.416088 14.793379,-8.602448c8.15386,1.813639 12.22875,6.97982 9.668196,14.043365z"/>
   <path opacity="0.66" fill="url(#R2)" stroke="#520000" id="p6" d="m39.457005,39.790726c-2.277267,6.295784 -8.627119,11.683746 -14.960369,9.421577c-6.69894,-0.642838 -10.123247,-8.209572 -9.474987,-14.868481c0.728109,-7.479168 6.632397,-10.427538 14.777517,-8.611897c8.145128,1.81563 12.215639,6.987488 9.657839,14.0588z"/>
   <path fill="none" stroke="url(#G6)" id="p7" d="m24.322247,26.343325c-3.072062,0.155701 -5.787771,1.52556 -7.161652,4.25289c-2.536787,5.035851 -0.534719,11.521309 1.70598,14.298851c2.676731,3.324226 4.93428,3.043999 6.2271,3.377525c4.357161,1.420685 8.868151,-1.071175 11.727549,-5.604965c4.783394,-7.584435 1.766891,-12.681511 -4.479046,-15.08757c-2.496321,-0.961639 -5.266813,-1.37627 -8.019932,-1.236731z"/>
   <path fill="none" stroke="#520000" id="p8" d="m25.586426,26.392885c-0.601379,3.336069 4.88838,5.213419 6.33552,2.00075"/>
  </g>
  <g id="leaf1" transform="matrix(0.92007, 0.0398467, -0.0466257, 1.06115, 3.81316, -2.57331)">
   <path fill="url(#R9)" stroke="#2d5a00" id="p9" d="m22.556366,5.726919c4.379841,-2.746769 13.961136,0.23583 13.961136,0.23583c0,0 -7.194345,6.7153 -10.797255,5.984331c-3.083651,-0.63088 -11.581281,-5.233901 -11.581281,-5.233901c0,0 4.58989,1.4036 8.417399,-0.98626z"/>
   <path fill="none" stroke="#59aa0a" stroke-miterlimit="9" id="p10" d="m18.356686,7.863039c3.252501,1.65063 6.390261,2.91916 6.970781,3.111591c2.691809,0.89226 7.755537,-3.333101 9.323126,-4.624991c-2.065216,-0.5117 -8.081636,-1.651279 -11.074116,-0.16016c-1.050751,0.52359 -3.020121,1.552 -5.219791,1.67356z"/>
  </g>
  <path fill="#4e9a06" stroke="#275000" id="stem" d="m37.129353,4.650526c0,0 -1.663658,1.14858 -1.663658,1.14858c-17.03264,5.75937 -18.756601,14.084599 -21.040411,14.02693c0.573771,1.14043 1.701151,1.362789 3.205379,1.46117c-1.850559,-2.00947 5.44521,-9.71654 16.53301,-13.839381c-4.26322,6.05492 -5.302969,17.43664 -6.801302,17.559439c1.201233,0.812471 1.91679,1.134451 3.176201,0.486311c-1.201168,-1.319019 0.91568,-12.05067 4.911303,-18.07479c0,0 2.724899,-1.64767 2.724899,-1.64767l-1.045422,-1.12059z"/>
  <g id="leaf2" transform="matrix(1.17677, 0.047111, -0.0521651, 1.09746, -5.57154, -3.13287)">
   <path fill="url(#R3)" stroke="#2d5a00" id="p11" d="m37.549038,5.628187c-0.231602,1.17253 -0.737801,2.14697 5.651749,5.62154c2.95689,1.607931 0.964191,5.096421 0.410381,9.718411c-5.078251,-4.748051 -10.409309,-10.070392 -6.06213,-15.339951z"/>
   <path fill="none" stroke="#59aa0a" id="p12" d="m37.174038,8.159436c-0.125,0.25 -0.788082,2.05978 0.715088,4.789551c0.98777,1.945641 3.283821,4.33652 5.050163,6.019151c0.725689,-3.73136 1.518337,-5.789901 -0.051003,-6.749661c-0.667297,-0.4081 -2.440289,-1.329411 -3.67514,-2.196739c-1.649879,-1.15885 -2.039108,-1.862301 -2.039108,-1.862301z"/>
  </g>
  <use x="779.576736" y="-383.143843" transform="matrix(0.0206342, 0, 0, 0.019741, 24.0265, 41.5371)" xlink:href="#svg_11" id="svg_12"/>
  <use id="svg_13" x="-224.214591" y="-1490.13867" transform="matrix(0.0161446, 0, 0, 0.0165246, 17.481, 34.21)" xlink:href="#svg_11"/>
  <use id="svg_14" x="-628.366217" y="-120.341988" transform="matrix(0.020073, 0, 0, 0.0197409, 19.9566, 42.1674)" xlink:href="#svg_11"/>
  <text transform="rotate(2.60259)" xml:space="preserve" text-anchor="middle" font-family="Arial" font-size="0.001" id="svg_15" y="26.181819" x="9.272729" stroke-width="0" fill="#000000">gbhnhfg</text>
  <rect id="svg_23" height="6.360798" width="9.448633" y="23.278409" x="4.54428" fill="url(#R6)"/>
  <text transform="matrix(1, 0, 0, 1, 0, 0)" xml:space="preserve" text-anchor="middle" font-family="Comic Sans MS" font-size="5.001" id="svg_26" y="26.909092" x="11.272729" stroke-width="0" fill="#000000"/>
 </g>
</svg>