<?xml version="1.0"?><svg width="701.80939" height="664.45471" xmlns="http://www.w3.org/2000/svg" xmlns:xlink="http://www.w3.org/1999/xlink">
 <defs>
  <filter id="filter3958-8-5" color-interpolation-filters="sRGB">
   <feGaussianBlur id="feGaussianBlur3960-0-5" stdDeviation="3.744547"/>
  </filter>
  <linearGradient id="linearGradient3962-3-9">
   <stop stop-color="#ffffff" offset="0" id="stop3964-65-3"/>
   <stop stop-color="#ffffff" stop-opacity="0" offset="1" id="stop3966-5-7"/>
  </linearGradient>
  <linearGradient id="linearGradient4054-7-7">
   <stop stop-color="#ffffff" offset="0" id="stop4056-76-3"/>
   <stop stop-color="#ffffff" stop-opacity="0" offset="1" id="stop4058-1-1"/>
  </linearGradient>
  <linearGradient xlink:href="#linearGradient4054-7-7" id="linearGradient3760" y2="1.322299" x2="0.491582" y1="-0.498496" x1="0.511866"/>
  <linearGradient xlink:href="#linearGradient3962-3-9" id="svg_1" y2="0.564761" x2="0.572714" y1="0.000523" x1="0.566887"/>
 </defs>
 <metadata id="metadata4">image/svg+xml</metadata>
 <g>
  <title>Layer 1</title>
  <g id="g3719">
   <rect fill="#000080" id="rect3073" y="24.619974" x="31.862967" ry="64.545876" height="607.7135" width="644.10352"/>
   <rect opacity="0.95" fill="#f2f210" id="rect3311" y="24.619999" x="31.862967" ry="64.545876" height="607.7135" width="644.10352"/>
   <path opacity="0.88" fill="url(#svg_1)" filter="url(#filter3958-8-5)" id="rect3085" d="m94.32917,607.524109c7.75296,-0.905884 2.75473,-8.998474 -2.780197,-9.19989c-29.949928,-12.74231 -46.507114,-47.116455 -41.589836,-78.856567c0.87138,-144.491333 -2.000835,-289.082184 1.656075,-433.508751c7.37957,-35.496502 46.006363,-59.470978 81.232338,-53.627033c155.834671,0.837219 311.740219,-1.798439 467.528305,1.510944c27.860413,5.522488 48.588318,30.597191 54.147095,57.610138c4.042603,15.29425 7.338135,-3.16011 6.741028,-9.740173c1.555786,-18.419609 -4.775085,-37.917328 -20.347778,-48.729298c-15.078796,-12.346609 -35.57312,-13.585062 -54.188599,-11.514919c-168.756653,0.636602 -337.594482,-1.443018 -506.299423,1.202909c-29.883579,6.531096 -47.058807,40.397394 -41.191761,69.151117c0.877304,158.33783 -1.795082,316.801254 1.460197,475.060104c5.788857,23.574036 29.243031,41.541077 53.632557,40.641418zm521.767632,-0.707642c31.2099,-3.834656 51.50415,-38.252991 45.440063,-68.140137c-0.880066,-16.416626 1.638672,-33.558289 -1.411621,-49.512024c-2.819092,-10.80249 -7.405457,5.898438 -6.268494,10.740875c-0.67981,25.417511 4.719421,54.54953 -12.788879,75.722504c-10.118713,14.900146 -27.027954,21.708435 -42.359924,29.823914c5.793945,0.63739 11.534058,1.804016 17.388855,1.364868z"/>
   <path fill="url(#linearGradient3760)" id="path5352" d="m621.687683,54.787209c-149.209991,5.293503 -298.973999,-1.099899 -448.386993,2.098301c-29.970993,0.986 -60.881897,0.7388 -90.245087,3.6138c-16.814392,22.239201 -14.299103,51.282101 -15.878998,77.339115c1.442108,85.744995 0.588196,171.49498 0.713776,257.243973c38.085632,54.570007 81.17131,111.234009 145.618317,138.858032c30.506989,11.921021 66.401001,5.442993 91.785004,-13.768005c59.781006,-36.775024 107.41098,-87.288025 163.339996,-128.876007c49.373993,-42.669006 101.248993,-89.291016 168.889984,-102.434021c5.888,-0.830994 13.47699,0.033997 10.226013,-8.121002c-0.963013,-69.699982 7.359985,-140.530975 -7.638977,-209.27298c-3.114014,-7.3237 -8.479004,-17.552105 -18.423035,-16.681206l0,0z"/>
  </g>
 </g>
</svg>